<svg width="1440" height="427" viewBox="0 0 1440 427" fill="none" xmlns="http://www.w3.org/2000/svg">
<g filter="url(#filter0_d)">
<path d="M-214.777 97.9896L-210.938 255.144L-207.513 395.37L1754.47 370.889L1585.65 11.6491C1498.47 46.0765 1002.52 156.824 828.881 173.626C596.767 196.087 475.708 67.022 299.036 43.0761C119.387 18.7268 -133.081 84.5222 -214.777 97.9896Z" fill="url(#paint0_linear)"/>
</g>
<path d="M520.5 296.055C307.3 218.455 -74.5 307.329 -135 371.996V546.496L1754 572.054V156.298C1754 156.298 1636.5 85.4277 1565.5 92.4956C1455 103.496 1246 135.798 1076.5 233.798C907 331.798 733.7 373.655 520.5 296.055Z" fill="url(#paint1_linear)"/>
<defs>
<filter id="filter0_d" x="-218.777" y="11.6491" width="1977.25" height="391.721" filterUnits="userSpaceOnUse" color-interpolation-filters="sRGB">
<feFlood flood-opacity="0" result="BackgroundImageFix"/>
<feColorMatrix in="SourceAlpha" type="matrix" values="0 0 0 0 0 0 0 0 0 0 0 0 0 0 0 0 0 0 127 0"/>
<feOffset dy="4"/>
<feGaussianBlur stdDeviation="2"/>
<feColorMatrix type="matrix" values="0 0 0 0 0 0 0 0 0 0 0 0 0 0 0 0 0 0 0.25 0"/>
<feBlend mode="normal" in2="BackgroundImageFix" result="effect1_dropShadow"/>
<feBlend mode="normal" in="SourceGraphic" in2="effect1_dropShadow" result="shape"/>
</filter>
<linearGradient id="paint0_linear" x1="535.5" y1="109" x2="544.119" y2="376.013" gradientUnits="userSpaceOnUse">
<stop stop-color="#93A7F8"/>
<stop offset="1" stop-color="#3B4C92"/>
</linearGradient>
<linearGradient id="paint1_linear" x1="855" y1="151.821" x2="903.272" y2="573.198" gradientUnits="userSpaceOnUse">
<stop stop-color="#93A7F8"/>
<stop offset="1" stop-color="#3B4C92"/>
</linearGradient>
</defs>
</svg>
